<?xml version="1.0" encoding="UTF-8" standalone="no"?>
<svg width="317.5mm" height="104.246mm"
 xmlns="http://www.w3.org/2000/svg" xmlns:xlink="http://www.w3.org/1999/xlink"  version="1.2" baseProfile="tiny">
<desc>Created by HiQPdf</desc>
<defs>
</defs>
<g fill="none" stroke="black" stroke-width="1" fill-rule="evenodd" stroke-linecap="square" stroke-linejoin="bevel" >

<g fill="#000000" fill-opacity="1" stroke="#000000" stroke-opacity="1" stroke-width="1" stroke-linecap="square" stroke-linejoin="miter" stroke-miterlimit="2" transform="matrix(1,0,0,1,0,0)"
>
</g>

<g fill="#000000" fill-opacity="1" stroke="#000000" stroke-opacity="1" stroke-width="1" stroke-linecap="square" stroke-linejoin="miter" stroke-miterlimit="2" transform="matrix(1,0,0,1,0,0)"
>
</g>

<g fill="#000000" fill-opacity="1" stroke="#000000" stroke-opacity="1" stroke-width="1" stroke-linecap="square" stroke-linejoin="miter" stroke-miterlimit="2" transform="matrix(1,0,0,1,0,0)"
>
</g>

<g fill="#000000" fill-opacity="1" stroke="#000000" stroke-opacity="1" stroke-width="1" stroke-linecap="square" stroke-linejoin="miter" stroke-miterlimit="2" transform="matrix(1,0,0,1,0,0)"
>
</g>

<g fill="#000000" fill-opacity="1" stroke="#000000" stroke-opacity="1" stroke-width="1" stroke-linecap="square" stroke-linejoin="miter" stroke-miterlimit="2" transform="matrix(0.989529,0,0,0.989529,-120.639,-120.639)"
>
</g>

<g fill="#000000" fill-opacity="1" stroke="none" transform="matrix(0.989529,0,0,0.989529,-120.639,-120.639)"
opacity="0" >
<path vector-effect="none" fill-rule="nonzero" d="M370.75,424.78 L371.75,430.28 C371.1,434.18 370.69,436.62 370.53,437.6 C370.016,440.674 368.764,443.577 366.88,446.06 C365.55,447.8 367.45,445.3 366.88,446.06 C362.492,451.832 357.169,456.827 351.13,460.84 C348.74,462.43 350.67,461.15 348.27,462.75 C342.26,466.75 335.67,469.81 328.74,471.84 C326.05,472.62 328.01,472.05 325.21,472.87 C318.606,474.8 311.76,475.779 304.88,475.78 C302.74,475.78 306.95,475.78 304.88,475.78 C297.78,475.78 290.7,475.06 283.74,473.64 C280.94,473.07 279.3,472.73 275.58,471.97 C271.75,471.19 268.15,469.52 265.06,467.11 C263.7,466.05 266,467.85 265.06,467.11 C260.576,463.598 256.928,459.134 254.38,454.04 C254.1,453.47 253.39,452.05 252.25,449.78 L252.25,449.77 C251.27,441.93 252.48,433.97 255.75,426.78 "/>
</g>

<g fill="none" stroke="#40e0d0" stroke-opacity="1" stroke-width="1" stroke-linecap="butt" stroke-linejoin="miter" stroke-miterlimit="4" transform="matrix(0.989529,0,0,0.989529,-120.639,-120.639)"
>
<path vector-effect="none" fill-rule="nonzero" d="M370.75,424.78 L371.75,430.28 C371.1,434.18 370.69,436.62 370.53,437.6 C370.016,440.674 368.764,443.577 366.88,446.06 C365.55,447.8 367.45,445.3 366.88,446.06 C362.492,451.832 357.169,456.827 351.13,460.84 C348.74,462.43 350.67,461.15 348.27,462.75 C342.26,466.75 335.67,469.81 328.74,471.84 C326.05,472.62 328.01,472.05 325.21,472.87 C318.606,474.8 311.76,475.779 304.88,475.78 C302.74,475.78 306.95,475.78 304.88,475.78 C297.78,475.78 290.7,475.06 283.74,473.64 C280.94,473.07 279.3,472.73 275.58,471.97 C271.75,471.19 268.15,469.52 265.06,467.11 C263.7,466.05 266,467.85 265.06,467.11 C260.576,463.598 256.928,459.134 254.38,454.04 C254.1,453.47 253.39,452.05 252.25,449.78 L252.25,449.77 C251.27,441.93 252.48,433.97 255.75,426.78 "/>
</g>

<g fill="#000000" fill-opacity="1" stroke="#000000" stroke-opacity="1" stroke-width="1" stroke-linecap="square" stroke-linejoin="miter" stroke-miterlimit="2" transform="matrix(0.989529,0,0,0.989529,-120.639,-120.639)"
>
</g>

<g fill="#000000" fill-opacity="1" stroke="#000000" stroke-opacity="1" stroke-width="1" stroke-linecap="square" stroke-linejoin="miter" stroke-miterlimit="2" transform="matrix(0.989529,0,0,0.989529,-120.639,-120.639)"
>
</g>

<g fill="#000000" fill-opacity="1" stroke="none" transform="matrix(0.989529,0,0,0.989529,-120.639,-120.639)"
opacity="0" >
<path vector-effect="none" fill-rule="nonzero" d="M507.5,502.03 C506.15,499.71 505.3,498.26 504.96,497.68 C501.99,492.59 498.63,487.73 494.92,483.16 C493.43,481.33 493.7,481.66 492,479.56 C489.01,475.884 485.619,472.554 481.89,469.63 C480.78,468.75 477.98,466.55 473.5,463.03 C468.99,460.63 466.18,459.12 465.05,458.52 C460.696,456.196 456.098,454.362 451.34,453.05 C449.53,452.54 445,451.29 437.75,449.28 L404.25,435.78 L384.75,429.28 C379.69,427.73 376.53,426.77 375.27,426.38 C369.689,424.676 364.653,421.535 360.67,417.27 C360.55,417.14 360.24,416.81 359.75,416.28 C357.47,413.03 356.25,409.15 356.25,405.18 L356.25,389.78"/>
</g>

<g fill="none" stroke="#40e0d0" stroke-opacity="1" stroke-width="1" stroke-linecap="butt" stroke-linejoin="miter" stroke-miterlimit="4" transform="matrix(0.989529,0,0,0.989529,-120.639,-120.639)"
>
<path vector-effect="none" fill-rule="nonzero" d="M507.5,502.03 C506.15,499.71 505.3,498.26 504.96,497.68 C501.99,492.59 498.63,487.73 494.92,483.16 C493.43,481.33 493.7,481.66 492,479.56 C489.01,475.884 485.619,472.554 481.89,469.63 C480.78,468.75 477.98,466.55 473.5,463.03 C468.99,460.63 466.18,459.12 465.05,458.52 C460.696,456.196 456.098,454.362 451.34,453.05 C449.53,452.54 445,451.29 437.75,449.28 L404.25,435.78 L384.75,429.28 C379.69,427.73 376.53,426.77 375.27,426.38 C369.689,424.676 364.653,421.535 360.67,417.27 C360.55,417.14 360.24,416.81 359.75,416.28 C357.47,413.03 356.25,409.15 356.25,405.18 L356.25,389.78"/>
</g>

<g fill="#000000" fill-opacity="1" stroke="#000000" stroke-opacity="1" stroke-width="1" stroke-linecap="square" stroke-linejoin="miter" stroke-miterlimit="2" transform="matrix(0.989529,0,0,0.989529,-120.639,-120.639)"
>
</g>

<g fill="#000000" fill-opacity="1" stroke="#000000" stroke-opacity="1" stroke-width="1" stroke-linecap="square" stroke-linejoin="miter" stroke-miterlimit="2" transform="matrix(0.989529,0,0,0.989529,-120.639,-120.639)"
>
</g>

<g fill="#000000" fill-opacity="1" stroke="none" transform="matrix(0.989529,0,0,0.989529,-120.639,-120.639)"
opacity="0" >
<path vector-effect="none" fill-rule="nonzero" d="M131,504.03 L135.5,499.03 L141.5,490.03 L157,479.53 L171.67,470.2 L188.33,460.86 C194.09,457.76 200.19,455.33 206.5,453.61 C207.53,453.32 204.85,454.05 206.82,453.52 C210.04,452.64 213.17,451.44 216.16,449.95 C216.45,449.8 217.18,449.44 218.33,448.86 C218.7,448.58 218.93,448.4 219.02,448.33 C224.761,443.811 231.034,440.012 237.7,437.02 C238.14,436.82 239.24,436.32 241,435.53 C244.12,434 246.06,433.04 246.84,432.65 C250.35,430.93 253.42,428.44 255.83,425.36 L257.17,423.03 L258.83,420.03 L257.83,404.7 L257.17,392.36"/>
</g>

<g fill="none" stroke="#40e0d0" stroke-opacity="1" stroke-width="1" stroke-linecap="butt" stroke-linejoin="miter" stroke-miterlimit="4" transform="matrix(0.989529,0,0,0.989529,-120.639,-120.639)"
>
<path vector-effect="none" fill-rule="nonzero" d="M131,504.03 L135.5,499.03 L141.5,490.03 L157,479.53 L171.67,470.2 L188.33,460.86 C194.09,457.76 200.19,455.33 206.5,453.61 C207.53,453.32 204.85,454.05 206.82,453.52 C210.04,452.64 213.17,451.44 216.16,449.95 C216.45,449.8 217.18,449.44 218.33,448.86 C218.7,448.58 218.93,448.4 219.02,448.33 C224.761,443.811 231.034,440.012 237.7,437.02 C238.14,436.82 239.24,436.32 241,435.53 C244.12,434 246.06,433.04 246.84,432.65 C250.35,430.93 253.42,428.44 255.83,425.36 L257.17,423.03 L258.83,420.03 L257.83,404.7 L257.17,392.36"/>
</g>

<g fill="#000000" fill-opacity="1" stroke="#000000" stroke-opacity="1" stroke-width="1" stroke-linecap="square" stroke-linejoin="miter" stroke-miterlimit="2" transform="matrix(0.989529,0,0,0.989529,-120.639,-120.639)"
>
</g>

<g fill="#000000" fill-opacity="1" stroke="#000000" stroke-opacity="1" stroke-width="1" stroke-linecap="square" stroke-linejoin="miter" stroke-miterlimit="2" transform="matrix(0.989529,0,0,0.989529,-120.639,-120.639)"
>
</g>

<g fill="#000000" fill-opacity="1" stroke="none" transform="matrix(0.989529,0,0,0.989529,-120.639,-120.639)"
opacity="0" >
<path vector-effect="none" fill-rule="nonzero" d="M330.12,370.87 L322.62,375.12 C321.34,375.7 320.54,376.07 320.22,376.21 C318.18,377.14 315.97,377.62 313.72,377.62 L297.62,377.62 L290.12,376.62 L285.62,374.62 L281.62,372.87 C280.45,372.03 279.72,371.51 279.43,371.3 C279.12,371.081 278.931,370.729 278.92,370.35 C278.908,369.971 279.075,369.608 279.37,369.37 L284.37,367.87 L290.12,366.12 L295.62,364.87 C297.87,364.41 300.21,364.86 302.12,366.12 L306.87,366.12 C308.18,365.77 308.99,365.55 309.32,365.46 C312.42,364.62 315.73,364.89 318.66,366.22 C318.92,366.34 319.58,366.64 320.62,367.12 L330.12,370.87"/>
</g>

<g fill="none" stroke="#40e0d0" stroke-opacity="1" stroke-width="1" stroke-linecap="butt" stroke-linejoin="miter" stroke-miterlimit="4" transform="matrix(0.989529,0,0,0.989529,-120.639,-120.639)"
>
<path vector-effect="none" fill-rule="nonzero" d="M330.12,370.87 L322.62,375.12 C321.34,375.7 320.54,376.07 320.22,376.21 C318.18,377.14 315.97,377.62 313.72,377.62 L297.62,377.62 L290.12,376.62 L285.62,374.62 L281.62,372.87 C280.45,372.03 279.72,371.51 279.43,371.3 C279.12,371.081 278.931,370.729 278.92,370.35 C278.908,369.971 279.075,369.608 279.37,369.37 L284.37,367.87 L290.12,366.12 L295.62,364.87 C297.87,364.41 300.21,364.86 302.12,366.12 L306.87,366.12 C308.18,365.77 308.99,365.55 309.32,365.46 C312.42,364.62 315.73,364.89 318.66,366.22 C318.92,366.34 319.58,366.64 320.62,367.12 L330.12,370.87"/>
</g>

<g fill="#000000" fill-opacity="1" stroke="#000000" stroke-opacity="1" stroke-width="1" stroke-linecap="square" stroke-linejoin="miter" stroke-miterlimit="2" transform="matrix(0.989529,0,0,0.989529,-120.639,-120.639)"
>
</g>

<g fill="#000000" fill-opacity="1" stroke="#000000" stroke-opacity="1" stroke-width="1" stroke-linecap="square" stroke-linejoin="miter" stroke-miterlimit="2" transform="matrix(0.989529,0,0,0.989529,-120.639,-120.639)"
>
</g>

<g fill="#000000" fill-opacity="1" stroke="none" transform="matrix(0.989529,0,0,0.989529,-120.639,-120.639)"
opacity="0" >
<path vector-effect="none" fill-rule="nonzero" d="M246.6,289.13 C247.24,288.3 247.63,287.79 247.79,287.58 C249.64,285.18 252,283.2 254.69,281.8 C255.48,281.39 257.45,280.37 260.6,278.73 C263.43,277.99 265.2,277.52 265.91,277.34 C268.46,276.67 271.08,276.33 273.72,276.33 L273.69,276.33 C277.16,276.33 280.6,276.86 283.91,277.89 C284.27,278 285.17,278.28 286.6,278.73 "/>
</g>

<g fill="none" stroke="#40e0d0" stroke-opacity="1" stroke-width="1" stroke-linecap="butt" stroke-linejoin="miter" stroke-miterlimit="4" transform="matrix(0.989529,0,0,0.989529,-120.639,-120.639)"
>
<path vector-effect="none" fill-rule="nonzero" d="M246.6,289.13 C247.24,288.3 247.63,287.79 247.79,287.58 C249.64,285.18 252,283.2 254.69,281.8 C255.48,281.39 257.45,280.37 260.6,278.73 C263.43,277.99 265.2,277.52 265.91,277.34 C268.46,276.67 271.08,276.33 273.72,276.33 L273.69,276.33 C277.16,276.33 280.6,276.86 283.91,277.89 C284.27,278 285.17,278.28 286.6,278.73 "/>
</g>

<g fill="#000000" fill-opacity="1" stroke="#000000" stroke-opacity="1" stroke-width="1" stroke-linecap="square" stroke-linejoin="miter" stroke-miterlimit="2" transform="matrix(0.989529,0,0,0.989529,-120.639,-120.639)"
>
</g>

<g fill="#000000" fill-opacity="1" stroke="#000000" stroke-opacity="1" stroke-width="1" stroke-linecap="square" stroke-linejoin="miter" stroke-miterlimit="2" transform="matrix(0.989529,0,0,0.989529,-120.639,-120.639)"
>
</g>

<g fill="#000000" fill-opacity="1" stroke="none" transform="matrix(0.989529,0,0,0.989529,-120.639,-120.639)"
opacity="0" >
<path vector-effect="none" fill-rule="nonzero" d="M288.12,330.62 L286.12,334.62 C285.8,336.43 285.88,338.29 286.37,340.06 C286.47,340.42 285.95,338.54 286.03,338.84 C286.59,340.83 287.57,342.68 288.92,344.26 C289.05,344.41 289.37,344.78 289.87,345.37 L292.12,344.62 C291.88,342.81 293.53,341.32 295.31,341.74 C295.38,341.75 295.57,341.8 295.87,341.87 L298.12,343.62 L300.87,345.37 L301.32,345.52 C303.94,346.39 306.79,346.34 309.37,345.37 L311.12,342.87 C311.41,342.73 311.58,342.64 311.65,342.6 C313.45,341.71 315.61,342.68 316.12,344.62 C316.12,344.62 315.69,342.97 315.83,343.5 C315.98,344.08 316.63,344.37 317.16,344.1 L316.12,344.62 C317.424,343.97 318.499,342.937 319.2,341.66 C319.25,341.55 319.4,341.29 319.62,340.87 L319.62,335.87 L318.12,330.62"/>
</g>

<g fill="none" stroke="#40e0d0" stroke-opacity="1" stroke-width="1" stroke-linecap="butt" stroke-linejoin="miter" stroke-miterlimit="4" transform="matrix(0.989529,0,0,0.989529,-120.639,-120.639)"
>
<path vector-effect="none" fill-rule="nonzero" d="M288.12,330.62 L286.12,334.62 C285.8,336.43 285.88,338.29 286.37,340.06 C286.47,340.42 285.95,338.54 286.03,338.84 C286.59,340.83 287.57,342.68 288.92,344.26 C289.05,344.41 289.37,344.78 289.87,345.37 L292.12,344.62 C291.88,342.81 293.53,341.32 295.31,341.74 C295.38,341.75 295.57,341.8 295.87,341.87 L298.12,343.62 L300.87,345.37 L301.32,345.52 C303.94,346.39 306.79,346.34 309.37,345.37 L311.12,342.87 C311.41,342.73 311.58,342.64 311.65,342.6 C313.45,341.71 315.61,342.68 316.12,344.62 C316.12,344.62 315.69,342.97 315.83,343.5 C315.98,344.08 316.63,344.37 317.16,344.1 L316.12,344.62 C317.424,343.97 318.499,342.937 319.2,341.66 C319.25,341.55 319.4,341.29 319.62,340.87 L319.62,335.87 L318.12,330.62"/>
</g>

<g fill="#000000" fill-opacity="1" stroke="#000000" stroke-opacity="1" stroke-width="1" stroke-linecap="square" stroke-linejoin="miter" stroke-miterlimit="2" transform="matrix(0.989529,0,0,0.989529,-120.639,-120.639)"
>
</g>

<g fill="#000000" fill-opacity="1" stroke="#000000" stroke-opacity="1" stroke-width="1" stroke-linecap="square" stroke-linejoin="miter" stroke-miterlimit="2" transform="matrix(0.989529,0,0,0.989529,-120.639,-120.639)"
>
</g>

<g fill="#000000" fill-opacity="1" stroke="none" transform="matrix(0.989529,0,0,0.989529,-120.639,-120.639)"
opacity="0" >
<path vector-effect="none" fill-rule="nonzero" d="M360.2,287.93 C359.54,287.02 359.12,286.45 358.96,286.22 C357.67,284.446 356.021,282.964 354.12,281.87 C352.61,281 353.12,281.29 352.15,280.73 C348.46,278.6 344.54,276.93 340.45,275.74 C339.99,275.6 338.84,275.27 337,274.73 L333.07,274.73 C330.13,274.73 327.21,275.24 324.45,276.24 C324.41,276.25 324.33,276.28 324.2,276.33 L319,278.33"/>
</g>

<g fill="none" stroke="#40e0d0" stroke-opacity="1" stroke-width="1" stroke-linecap="butt" stroke-linejoin="miter" stroke-miterlimit="4" transform="matrix(0.989529,0,0,0.989529,-120.639,-120.639)"
>
<path vector-effect="none" fill-rule="nonzero" d="M360.2,287.93 C359.54,287.02 359.12,286.45 358.96,286.22 C357.67,284.446 356.021,282.964 354.12,281.87 C352.61,281 353.12,281.29 352.15,280.73 C348.46,278.6 344.54,276.93 340.45,275.74 C339.99,275.6 338.84,275.27 337,274.73 L333.07,274.73 C330.13,274.73 327.21,275.24 324.45,276.24 C324.41,276.25 324.33,276.28 324.2,276.33 L319,278.33"/>
</g>

<g fill="#000000" fill-opacity="1" stroke="#000000" stroke-opacity="1" stroke-width="1" stroke-linecap="square" stroke-linejoin="miter" stroke-miterlimit="2" transform="matrix(0.989529,0,0,0.989529,-120.639,-120.639)"
>
</g>

<g fill="#000000" fill-opacity="1" stroke="#000000" stroke-opacity="1" stroke-width="1" stroke-linecap="square" stroke-linejoin="miter" stroke-miterlimit="2" transform="matrix(0.989529,0,0,0.989529,-120.639,-120.639)"
>
</g>

<g fill="#000000" fill-opacity="1" stroke="none" transform="matrix(0.989529,0,0,0.989529,-120.639,-120.639)"
opacity="0" >
<path vector-effect="none" fill-rule="nonzero" d="M319,390.73 L285.93,390.73"/>
</g>

<g fill="none" stroke="#40e0d0" stroke-opacity="1" stroke-width="1" stroke-linecap="butt" stroke-linejoin="miter" stroke-miterlimit="4" transform="matrix(0.989529,0,0,0.989529,-120.639,-120.639)"
>
<path vector-effect="none" fill-rule="nonzero" d="M319,390.73 L285.93,390.73"/>
</g>

<g fill="#000000" fill-opacity="1" stroke="#000000" stroke-opacity="1" stroke-width="1" stroke-linecap="square" stroke-linejoin="miter" stroke-miterlimit="2" transform="matrix(0.989529,0,0,0.989529,-120.639,-120.639)"
>
</g>

<g fill="#000000" fill-opacity="1" stroke="#000000" stroke-opacity="1" stroke-width="1" stroke-linecap="square" stroke-linejoin="miter" stroke-miterlimit="2" transform="matrix(0.989529,0,0,0.989529,-120.639,-120.639)"
>
</g>

<g fill="#000000" fill-opacity="1" stroke="none" transform="matrix(0.989529,0,0,0.989529,-120.639,-120.639)"
opacity="0" >
<path vector-effect="none" fill-rule="nonzero" d="M328.62,371.16 L301.62,371.16 L292.87,370.87 L279.37,370.37"/>
</g>

<g fill="none" stroke="#40e0d0" stroke-opacity="1" stroke-width="1" stroke-linecap="butt" stroke-linejoin="miter" stroke-miterlimit="4" transform="matrix(0.989529,0,0,0.989529,-120.639,-120.639)"
>
<path vector-effect="none" fill-rule="nonzero" d="M328.62,371.16 L301.62,371.16 L292.87,370.87 L279.37,370.37"/>
</g>

<g fill="#000000" fill-opacity="1" stroke="#000000" stroke-opacity="1" stroke-width="1" stroke-linecap="square" stroke-linejoin="miter" stroke-miterlimit="2" transform="matrix(0.989529,0,0,0.989529,-120.639,-120.639)"
>
</g>

<g fill="#000000" fill-opacity="1" stroke="#000000" stroke-opacity="1" stroke-width="1" stroke-linecap="square" stroke-linejoin="miter" stroke-miterlimit="2" transform="matrix(0.989529,0,0,0.989529,-120.639,-120.639)"
>
</g>

<g fill="#000000" fill-opacity="1" stroke="none" transform="matrix(0.989529,0,0,0.989529,-120.639,-120.639)"
opacity="0" >
<path vector-effect="none" fill-rule="nonzero" d="M257.7,338.38 L245.4,328.33"/>
</g>

<g fill="none" stroke="#40e0d0" stroke-opacity="1" stroke-width="1" stroke-linecap="butt" stroke-linejoin="miter" stroke-miterlimit="4" transform="matrix(0.989529,0,0,0.989529,-120.639,-120.639)"
>
<path vector-effect="none" fill-rule="nonzero" d="M257.7,338.38 L245.4,328.33"/>
</g>

<g fill="#000000" fill-opacity="1" stroke="#000000" stroke-opacity="1" stroke-width="1" stroke-linecap="square" stroke-linejoin="miter" stroke-miterlimit="2" transform="matrix(0.989529,0,0,0.989529,-120.639,-120.639)"
>
</g>

<g fill="#000000" fill-opacity="1" stroke="#000000" stroke-opacity="1" stroke-width="1" stroke-linecap="square" stroke-linejoin="miter" stroke-miterlimit="2" transform="matrix(0.989529,0,0,0.989529,-120.639,-120.639)"
>
</g>

<g fill="#000000" fill-opacity="1" stroke="none" transform="matrix(0.989529,0,0,0.989529,-120.639,-120.639)"
opacity="0" >
<path vector-effect="none" fill-rule="nonzero" d="M310.75,204.75 C309.27,204.47 308.34,204.3 307.97,204.23 C304.51,203.58 300.97,203.44 297.47,203.82 C295.72,204 298.52,203.7 297.47,203.82 C291.68,204.44 285.98,205.76 280.51,207.75 C280.14,207.88 279.22,208.21 277.75,208.75 L269.53,212.86 C262.41,216.419 256.047,221.323 250.79,227.3 C250.18,227.99 252.18,225.71 250.54,227.58 L245.33,234.21 C243.71,236.52 244.27,235.72 243.4,236.97 C239.327,242.783 236.261,249.24 234.33,256.07 C233.41,259.3 233.66,258.45 232.76,261.62 C230.771,268.646 230.09,275.978 230.75,283.25 L232.25,296.25 L233.75,304.75 L229.75,304.75 L228.75,310.75 L229.75,318.75 C229.89,319.41 229.97,319.83 230.01,319.99 C231.5,327.15 233.63,334.16 236.38,340.93 C236.83,342.04 237.95,344.82 239.75,349.25 C240.41,356.23 241.9,363.1 244.17,369.73 C244.69,371.23 244.16,369.69 245.01,372.18 C246.16,375.54 247.79,378.73 249.84,381.64 C251.12,383.46 249.6,381.3 250.31,382.31 L262.61,398.87 C263.14,399.55 261.34,397.25 262.61,398.87 C264.369,401.118 266.319,403.209 268.44,405.12 C269.35,405.94 271.62,407.98 275.25,411.25 L285.25,415.75 L294.25,417.25"/>
</g>

<g fill="none" stroke="#40e0d0" stroke-opacity="1" stroke-width="1" stroke-linecap="butt" stroke-linejoin="miter" stroke-miterlimit="4" transform="matrix(0.989529,0,0,0.989529,-120.639,-120.639)"
>
<path vector-effect="none" fill-rule="nonzero" d="M310.75,204.75 C309.27,204.47 308.34,204.3 307.97,204.23 C304.51,203.58 300.97,203.44 297.47,203.82 C295.72,204 298.52,203.7 297.47,203.82 C291.68,204.44 285.98,205.76 280.51,207.75 C280.14,207.88 279.22,208.21 277.75,208.75 L269.53,212.86 C262.41,216.419 256.047,221.323 250.79,227.3 C250.18,227.99 252.18,225.71 250.54,227.58 L245.33,234.21 C243.71,236.52 244.27,235.72 243.4,236.97 C239.327,242.783 236.261,249.24 234.33,256.07 C233.41,259.3 233.66,258.45 232.76,261.62 C230.771,268.646 230.09,275.978 230.75,283.25 L232.25,296.25 L233.75,304.75 L229.75,304.75 L228.75,310.75 L229.75,318.75 C229.89,319.41 229.97,319.83 230.01,319.99 C231.5,327.15 233.63,334.16 236.38,340.93 C236.83,342.04 237.95,344.82 239.75,349.25 C240.41,356.23 241.9,363.1 244.17,369.73 C244.69,371.23 244.16,369.69 245.01,372.18 C246.16,375.54 247.79,378.73 249.84,381.64 C251.12,383.46 249.6,381.3 250.31,382.31 L262.61,398.87 C263.14,399.55 261.34,397.25 262.61,398.87 C264.369,401.118 266.319,403.209 268.44,405.12 C269.35,405.94 271.62,407.98 275.25,411.25 L285.25,415.75 L294.25,417.25"/>
</g>

<g fill="#000000" fill-opacity="1" stroke="#000000" stroke-opacity="1" stroke-width="1" stroke-linecap="square" stroke-linejoin="miter" stroke-miterlimit="2" transform="matrix(0.989529,0,0,0.989529,-120.639,-120.639)"
>
</g>

<g fill="#000000" fill-opacity="1" stroke="#000000" stroke-opacity="1" stroke-width="1" stroke-linecap="square" stroke-linejoin="miter" stroke-miterlimit="2" transform="matrix(0.989529,0,0,0.989529,-120.639,-120.639)"
>
</g>

<g fill="#000000" fill-opacity="1" stroke="none" transform="matrix(0.989529,0,0,0.989529,-120.639,-120.639)"
opacity="0" >
<path vector-effect="none" fill-rule="nonzero" d="M339.6,338.38 L348.2,328.33"/>
</g>

<g fill="none" stroke="#40e0d0" stroke-opacity="1" stroke-width="1" stroke-linecap="butt" stroke-linejoin="miter" stroke-miterlimit="4" transform="matrix(0.989529,0,0,0.989529,-120.639,-120.639)"
>
<path vector-effect="none" fill-rule="nonzero" d="M339.6,338.38 L348.2,328.33"/>
</g>

<g fill="#000000" fill-opacity="1" stroke="#000000" stroke-opacity="1" stroke-width="1" stroke-linecap="square" stroke-linejoin="miter" stroke-miterlimit="2" transform="matrix(0.989529,0,0,0.989529,-120.639,-120.639)"
>
</g>

<g fill="#000000" fill-opacity="1" stroke="#000000" stroke-opacity="1" stroke-width="1" stroke-linecap="square" stroke-linejoin="miter" stroke-miterlimit="2" transform="matrix(0.989529,0,0,0.989529,-120.639,-120.639)"
>
</g>

<g fill="#000000" fill-opacity="1" stroke="none" transform="matrix(0.989529,0,0,0.989529,-120.639,-120.639)"
opacity="0" >
<path vector-effect="none" fill-rule="nonzero" d="M131,131 L509,131 L509,509 L131,509 L131,131"/>
</g>

<g fill="none" stroke="#40e0d0" stroke-opacity="1" stroke-width="1" stroke-linecap="butt" stroke-linejoin="miter" stroke-miterlimit="4" transform="matrix(0.989529,0,0,0.989529,-120.639,-120.639)"
>
<path vector-effect="none" fill-rule="nonzero" d="M131,131 L509,131 L509,509 L131,509 L131,131"/>
</g>

<g fill="#000000" fill-opacity="1" stroke="#000000" stroke-opacity="1" stroke-width="1" stroke-linecap="square" stroke-linejoin="miter" stroke-miterlimit="2" transform="matrix(0.989529,0,0,0.989529,-120.639,-120.639)"
>
</g>

<g fill="#000000" fill-opacity="1" stroke="#000000" stroke-opacity="1" stroke-width="1" stroke-linecap="square" stroke-linejoin="miter" stroke-miterlimit="2" transform="matrix(0.989529,0,0,0.989529,-120.639,-120.639)"
>
</g>

<g fill="#000000" fill-opacity="1" stroke="none" transform="matrix(0.989529,0,0,0.989529,-120.639,-120.639)"
opacity="0" >
<path vector-effect="none" fill-rule="nonzero" d="M323.86,297.53 C324.38,297.75 324.71,297.88 324.84,297.93 C328.326,299.366 332.06,300.103 335.83,300.1 L343.86,300.1 L349.86,298.39 L348.14,296.39 C347.93,296.21 347.79,296.09 347.73,296.05 C345.73,294.38 343.5,293 341.11,291.96 C340.52,291.7 342.77,292.68 342.28,292.47 C339.566,291.289 336.598,290.81 333.65,291.08 C333.41,291.1 332.81,291.16 331.86,291.24 C330.42,291.77 329.53,292.09 329.17,292.22 C326.79,293.09 324.55,294.32 322.54,295.87 C322.44,295.93 322.22,296.11 321.86,296.39 L323.86,297.53 L323.86,297.53"/>
</g>

<g fill="none" stroke="#40e0d0" stroke-opacity="1" stroke-width="1" stroke-linecap="butt" stroke-linejoin="miter" stroke-miterlimit="4" transform="matrix(0.989529,0,0,0.989529,-120.639,-120.639)"
>
<path vector-effect="none" fill-rule="nonzero" d="M323.86,297.53 C324.38,297.75 324.71,297.88 324.84,297.93 C328.326,299.366 332.06,300.103 335.83,300.1 L343.86,300.1 L349.86,298.39 L348.14,296.39 C347.93,296.21 347.79,296.09 347.73,296.05 C345.73,294.38 343.5,293 341.11,291.96 C340.52,291.7 342.77,292.68 342.28,292.47 C339.566,291.289 336.598,290.81 333.65,291.08 C333.41,291.1 332.81,291.16 331.86,291.24 C330.42,291.77 329.53,292.09 329.17,292.22 C326.79,293.09 324.55,294.32 322.54,295.87 C322.44,295.93 322.22,296.11 321.86,296.39 L323.86,297.53 L323.86,297.53"/>
</g>

<g fill="#000000" fill-opacity="1" stroke="#000000" stroke-opacity="1" stroke-width="1" stroke-linecap="square" stroke-linejoin="miter" stroke-miterlimit="2" transform="matrix(0.989529,0,0,0.989529,-120.639,-120.639)"
>
</g>

<g fill="#000000" fill-opacity="1" stroke="#000000" stroke-opacity="1" stroke-width="1" stroke-linecap="square" stroke-linejoin="miter" stroke-miterlimit="2" transform="matrix(0.989529,0,0,0.989529,-120.639,-120.639)"
>
</g>

<g fill="#000000" fill-opacity="1" stroke="none" transform="matrix(0.989529,0,0,0.989529,-120.639,-120.639)"
opacity="0" >
<path vector-effect="none" fill-rule="nonzero" d="M282.71,297.53 L278.92,298.39 C277.69,298.7 276.92,298.9 276.62,298.97 C275.16,299.34 273.67,299.58 272.18,299.68 C271.33,299.74 269.23,299.88 265.86,300.1 C263.01,299.69 260.25,298.8 257.7,297.45 L258.9,296.27 C259.11,296.05 259.24,295.92 259.29,295.87 C261.34,293.78 263.95,292.35 266.81,291.74 C267.82,291.53 265.93,291.93 266.81,291.74 C270.13,291.04 273.57,291.07 276.88,291.85 C277.35,291.96 278.54,292.23 280.43,292.67 L287.29,296.96 L282.71,297.53"/>
</g>

<g fill="none" stroke="#40e0d0" stroke-opacity="1" stroke-width="1" stroke-linecap="butt" stroke-linejoin="miter" stroke-miterlimit="4" transform="matrix(0.989529,0,0,0.989529,-120.639,-120.639)"
>
<path vector-effect="none" fill-rule="nonzero" d="M282.71,297.53 L278.92,298.39 C277.69,298.7 276.92,298.9 276.62,298.97 C275.16,299.34 273.67,299.58 272.18,299.68 C271.33,299.74 269.23,299.88 265.86,300.1 C263.01,299.69 260.25,298.8 257.7,297.45 L258.9,296.27 C259.11,296.05 259.24,295.92 259.29,295.87 C261.34,293.78 263.95,292.35 266.81,291.74 C267.82,291.53 265.93,291.93 266.81,291.74 C270.13,291.04 273.57,291.07 276.88,291.85 C277.35,291.96 278.54,292.23 280.43,292.67 L287.29,296.96 L282.71,297.53"/>
</g>

<g fill="#000000" fill-opacity="1" stroke="#000000" stroke-opacity="1" stroke-width="1" stroke-linecap="square" stroke-linejoin="miter" stroke-miterlimit="2" transform="matrix(0.989529,0,0,0.989529,-120.639,-120.639)"
>
</g>

<g fill="#000000" fill-opacity="1" stroke="#000000" stroke-opacity="1" stroke-width="1" stroke-linecap="square" stroke-linejoin="miter" stroke-miterlimit="2" transform="matrix(0.989529,0,0,0.989529,-120.639,-120.639)"
>
</g>

<g fill="#000000" fill-opacity="1" stroke="none" transform="matrix(0.989529,0,0,0.989529,-120.639,-120.639)"
opacity="0" >
<path vector-effect="none" fill-rule="nonzero" d="M294.2,417.25 L303.4,417.74 L317,418.14 C318.03,417.96 318.68,417.85 318.93,417.81 C323.69,416.98 328.13,414.89 331.8,411.74 L340.6,405.74 L351.4,394.94 C353.87,392.02 355.42,390.2 356.03,389.47 C358.81,386.19 361.27,382.67 363.4,378.94 L366.1,370.63 C367.761,365.522 368.878,360.253 369.43,354.91 C369.48,354.43 369.6,353.24 369.8,351.34 L371,348.14 L375.8,339.74 L380.2,328.94 L383,320.54 L384.2,307.74 L381.8,304.54 L377.8,303.74 L375,302.94 C375.17,302.13 375.28,301.62 375.32,301.41 C376.171,297.376 376.6,293.263 376.6,289.14 L376.6,286.14 L376.6,284.3 C376.6,279.4 376.24,274.51 375.53,269.67 C375.34,268.4 376.6,276.94 376.6,276.94 C375.27,267.9 373.07,259 370.02,250.38 C369.99,250.3 369.92,250.08 369.8,249.74 L367.55,245.48 C364,238.75 359.62,232.48 354.53,226.82 C353.91,226.13 356.07,228.53 354.53,226.82 C352.45,224.508 350.115,222.438 347.57,220.65 C342.931,217.385 338.039,214.496 332.94,212.01 C331.35,211.24 332.3,211.7 330.23,210.69 C326.753,209.001 323.101,207.7 319.34,206.81 C318.28,206.56 315.64,205.94 311.4,204.94 "/>
</g>

<g fill="none" stroke="#40e0d0" stroke-opacity="1" stroke-width="1" stroke-linecap="butt" stroke-linejoin="miter" stroke-miterlimit="4" transform="matrix(0.989529,0,0,0.989529,-120.639,-120.639)"
>
<path vector-effect="none" fill-rule="nonzero" d="M294.2,417.25 L303.4,417.74 L317,418.14 C318.03,417.96 318.68,417.85 318.93,417.81 C323.69,416.98 328.13,414.89 331.8,411.74 L340.6,405.74 L351.4,394.94 C353.87,392.02 355.42,390.2 356.03,389.47 C358.81,386.19 361.27,382.67 363.4,378.94 L366.1,370.63 C367.761,365.522 368.878,360.253 369.43,354.91 C369.48,354.43 369.6,353.24 369.8,351.34 L371,348.14 L375.8,339.74 L380.2,328.94 L383,320.54 L384.2,307.74 L381.8,304.54 L377.8,303.74 L375,302.94 C375.17,302.13 375.28,301.62 375.32,301.41 C376.171,297.376 376.6,293.263 376.6,289.14 L376.6,286.14 L376.6,284.3 C376.6,279.4 376.24,274.51 375.53,269.67 C375.34,268.4 376.6,276.94 376.6,276.94 C375.27,267.9 373.07,259 370.02,250.38 C369.99,250.3 369.92,250.08 369.8,249.74 L367.55,245.48 C364,238.75 359.62,232.48 354.53,226.82 C353.91,226.13 356.07,228.53 354.53,226.82 C352.45,224.508 350.115,222.438 347.57,220.65 C342.931,217.385 338.039,214.496 332.94,212.01 C331.35,211.24 332.3,211.7 330.23,210.69 C326.753,209.001 323.101,207.7 319.34,206.81 C318.28,206.56 315.64,205.94 311.4,204.94 "/>
</g>

<g fill="#000000" fill-opacity="1" stroke="#000000" stroke-opacity="1" stroke-width="1" stroke-linecap="square" stroke-linejoin="miter" stroke-miterlimit="2" transform="matrix(0.989529,0,0,0.989529,-120.639,-120.639)"
>
</g>

<g fill="#000000" fill-opacity="1" stroke="#000000" stroke-opacity="1" stroke-width="1" stroke-linecap="square" stroke-linejoin="miter" stroke-miterlimit="2" transform="matrix(0.989529,0,0,0.989529,-120.639,-120.639)"
>
</g>

<g fill="#000000" fill-opacity="1" stroke="#000000" stroke-opacity="1" stroke-width="1" stroke-linecap="square" stroke-linejoin="miter" stroke-miterlimit="2" transform="matrix(0.989529,0,0,0.989529,-120.639,-120.639)"
>
</g>

<g fill="#000000" fill-opacity="1" stroke="#000000" stroke-opacity="1" stroke-width="1" stroke-linecap="square" stroke-linejoin="miter" stroke-miterlimit="2" transform="matrix(1,0,0,1,0,0)"
>
</g>

<g fill="#000000" fill-opacity="1" stroke="#000000" stroke-opacity="1" stroke-width="1" stroke-linecap="square" stroke-linejoin="miter" stroke-miterlimit="2" transform="matrix(1,0,0,1,0,0)"
>
</g>

<g fill="#000000" fill-opacity="1" stroke="#000000" stroke-opacity="1" stroke-width="1" stroke-linecap="square" stroke-linejoin="miter" stroke-miterlimit="2" transform="matrix(1,0,0,1,0,0)"
>
</g>

<g fill="#000000" fill-opacity="1" stroke="#000000" stroke-opacity="1" stroke-width="1" stroke-linecap="square" stroke-linejoin="miter" stroke-miterlimit="2" transform="matrix(1,0,0,1,0,0)"
>
</g>

<g fill="#000000" fill-opacity="1" stroke="#000000" stroke-opacity="1" stroke-width="1" stroke-linecap="square" stroke-linejoin="miter" stroke-miterlimit="2" transform="matrix(0.989529,0,0,0.989529,-120.639,-120.639)"
>
</g>

<g fill="#000000" fill-opacity="1" stroke="#000000" stroke-opacity="1" stroke-width="1" stroke-linecap="square" stroke-linejoin="miter" stroke-miterlimit="2" transform="matrix(0.989529,0,0,0.989529,-120.639,-120.639)"
>
</g>

<g fill="#000000" fill-opacity="1" stroke="#000000" stroke-opacity="1" stroke-width="1" stroke-linecap="square" stroke-linejoin="miter" stroke-miterlimit="2" transform="matrix(0.989529,0,0,0.989529,-120.639,-120.639)"
>
</g>

<g fill="#000000" fill-opacity="1" stroke="#000000" stroke-opacity="1" stroke-width="1" stroke-linecap="square" stroke-linejoin="miter" stroke-miterlimit="2" transform="matrix(0.989529,0,0,0.989529,-120.639,-120.639)"
>
</g>

<g fill="#000000" fill-opacity="1" stroke="#000000" stroke-opacity="1" stroke-width="1" stroke-linecap="square" stroke-linejoin="miter" stroke-miterlimit="2" transform="matrix(0.989529,0,0,0.989529,-120.639,-120.639)"
>
</g>

<g fill="#000000" fill-opacity="1" stroke="#000000" stroke-opacity="1" stroke-width="1" stroke-linecap="square" stroke-linejoin="miter" stroke-miterlimit="2" transform="matrix(0.989529,0,0,0.989529,-120.639,-120.639)"
>
</g>

<g fill="#000000" fill-opacity="1" stroke="#000000" stroke-opacity="1" stroke-width="1" stroke-linecap="square" stroke-linejoin="miter" stroke-miterlimit="2" transform="matrix(0.989529,0,0,0.989529,-120.639,-120.639)"
>
</g>

<g fill="#000000" fill-opacity="1" stroke="#000000" stroke-opacity="1" stroke-width="1" stroke-linecap="square" stroke-linejoin="miter" stroke-miterlimit="2" transform="matrix(0.989529,0,0,0.989529,-120.639,-120.639)"
>
</g>

<g fill="#000000" fill-opacity="1" stroke="#000000" stroke-opacity="1" stroke-width="1" stroke-linecap="square" stroke-linejoin="miter" stroke-miterlimit="2" transform="matrix(0.989529,0,0,0.989529,-120.639,-120.639)"
>
</g>

<g fill="#000000" fill-opacity="1" stroke="#000000" stroke-opacity="1" stroke-width="1" stroke-linecap="square" stroke-linejoin="miter" stroke-miterlimit="2" transform="matrix(0.989529,0,0,0.989529,-120.639,-120.639)"
>
</g>

<g fill="#000000" fill-opacity="1" stroke="#000000" stroke-opacity="1" stroke-width="1" stroke-linecap="square" stroke-linejoin="miter" stroke-miterlimit="2" transform="matrix(0.989529,0,0,0.989529,-120.639,-120.639)"
>
</g>

<g fill="#000000" fill-opacity="1" stroke="#000000" stroke-opacity="1" stroke-width="1" stroke-linecap="square" stroke-linejoin="miter" stroke-miterlimit="2" transform="matrix(0.989529,0,0,0.989529,-120.639,-120.639)"
>
</g>

<g fill="#000000" fill-opacity="1" stroke="#000000" stroke-opacity="1" stroke-width="1" stroke-linecap="square" stroke-linejoin="miter" stroke-miterlimit="2" transform="matrix(0.989529,0,0,0.989529,-120.639,-120.639)"
>
</g>

<g fill="#000000" fill-opacity="1" stroke="#000000" stroke-opacity="1" stroke-width="1" stroke-linecap="square" stroke-linejoin="miter" stroke-miterlimit="2" transform="matrix(0.989529,0,0,0.989529,-120.639,-120.639)"
>
</g>

<g fill="#000000" fill-opacity="1" stroke="#000000" stroke-opacity="1" stroke-width="1" stroke-linecap="square" stroke-linejoin="miter" stroke-miterlimit="2" transform="matrix(0.989529,0,0,0.989529,-120.639,-120.639)"
>
</g>

<g fill="#000000" fill-opacity="1" stroke="#000000" stroke-opacity="1" stroke-width="1" stroke-linecap="square" stroke-linejoin="miter" stroke-miterlimit="2" transform="matrix(0.989529,0,0,0.989529,-120.639,-120.639)"
>
</g>

<g fill="#000000" fill-opacity="1" stroke="#000000" stroke-opacity="1" stroke-width="1" stroke-linecap="square" stroke-linejoin="miter" stroke-miterlimit="2" transform="matrix(0.989529,0,0,0.989529,-120.639,-120.639)"
>
</g>

<g fill="#000000" fill-opacity="1" stroke="#000000" stroke-opacity="1" stroke-width="1" stroke-linecap="square" stroke-linejoin="miter" stroke-miterlimit="2" transform="matrix(0.989529,0,0,0.989529,-120.639,-120.639)"
>
</g>

<g fill="#000000" fill-opacity="1" stroke="#000000" stroke-opacity="1" stroke-width="1" stroke-linecap="square" stroke-linejoin="miter" stroke-miterlimit="2" transform="matrix(1,0,0,1,0,0)"
>
</g>

<g fill="#000000" fill-opacity="1" stroke="#000000" stroke-opacity="1" stroke-width="1" stroke-linecap="square" stroke-linejoin="miter" stroke-miterlimit="2" transform="matrix(1,0,0,1,0,0)"
>
</g>

<g fill="#000000" fill-opacity="1" stroke="#000000" stroke-opacity="1" stroke-width="1" stroke-linecap="square" stroke-linejoin="miter" stroke-miterlimit="2" transform="matrix(1,0,0,1,0,0)"
>
</g>

<g fill="#000000" fill-opacity="1" stroke="#000000" stroke-opacity="1" stroke-width="1" stroke-linecap="square" stroke-linejoin="miter" stroke-miterlimit="2" transform="matrix(1,0,0,1,0,0)"
>
</g>

<g fill="#000000" fill-opacity="1" stroke="#000000" stroke-opacity="1" stroke-width="1" stroke-linecap="square" stroke-linejoin="miter" stroke-miterlimit="2" transform="matrix(1,0,0,1,0,0)"
>
</g>

<g fill="#000000" fill-opacity="1" stroke="#000000" stroke-opacity="1" stroke-width="1" stroke-linecap="square" stroke-linejoin="miter" stroke-miterlimit="2" transform="matrix(1,0,0,1,0,0)"
>
</g>
</g>
</svg>
